HIERARCHY
ROOT Hips
{
	OFFSET 0.00000 0.00000 0.00000
	CHANNELS 6 Xposition Yposition Zposition Zrotation Yrotation Xrotation 
	JOINT LHipJoint
	{
		OFFSET 0 0 0
		CHANNELS 3 Zrotation Yrotation Xrotation
		JOINT LeftHip
		{
			OFFSET 1.44361 -1.63093 0.70831
			CHANNELS 3 Zrotation Yrotation Xrotation
			JOINT LeftKnee
			{
				OFFSET 2.20103 -6.04728 0.00000
				CHANNELS 3 Zrotation Yrotation Xrotation
				JOINT LeftAnkle
				{
					OFFSET 2.54154 -6.98283 0.00000
					CHANNELS 3 Zrotation Yrotation Xrotation
					JOINT LeftToe
					{
						OFFSET 0.05971 -0.16406 1.77582
						CHANNELS 3 Zrotation Yrotation Xrotation
						End Site
						{
							OFFSET 0.00000 -0.00000 0.90832
						}
					}
				}
			}
		}
	}
	JOINT RHipJoint
	{
		OFFSET 0 0 0
		CHANNELS 3 Zrotation Yrotation Xrotation
		JOINT RightHip
		{
			OFFSET -1.65838 -1.63093 0.70830
			CHANNELS 3 Zrotation Yrotation Xrotation
			JOINT RightKnee
			{
				OFFSET -2.26926 -6.23475 0.00000
				CHANNELS 3 Zrotation Yrotation Xrotation
				JOINT RightAnkle
				{
					OFFSET -2.34808 -6.45129 0.00000
					CHANNELS 3 Zrotation Yrotation Xrotation
					JOINT RightToe
					{
						OFFSET -0.18633 -0.51195 1.68539
						CHANNELS 3 Zrotation Yrotation Xrotation
						End Site
						{
							OFFSET -0.00000 -0.00000 0.88927
						}
					}
				}
			}
		}
	}
	JOINT lowerback
	{
		OFFSET 0 0 0
		CHANNELS 3 Zrotation Yrotation Xrotation
		JOINT Chest
		{
			OFFSET -0.10393 2.01691 0.06920
			CHANNELS 3 Zrotation Yrotation Xrotation
			JOINT Chest2
			{
				OFFSET 0.04092 2.01302 -0.05283
				CHANNELS 3 Zrotation Yrotation Xrotation
				JOINT lowerneck
				{
					OFFSET 0 0 0
					CHANNELS 3 Zrotation Yrotation Xrotation
					JOINT Neck
					{
						OFFSET -0.02870 1.58978 -0.03113
						CHANNELS 3 Zrotation Yrotation Xrotation
						JOINT Head
						{
							OFFSET 0.11532 1.54326 -0.29195
							CHANNELS 3 Zrotation Yrotation Xrotation
							End Site
							{
								OFFSET 0.04056 1.59999 -0.09535
							}
						}
					}
				}
				JOINT LeftCollar
				{
					OFFSET 0 0 0
					CHANNELS 3 Zrotation Yrotation Xrotation
					JOINT LeftShoulder
					{
						OFFSET 3.30641 1.15764 0.01104
CHANNELS 3 Zrotation Xrotation Yrotation
						JOINT LeftElbow
						{
OFFSET 0 -4.632080 0.000000
CHANNELS 3 Zrotation Xrotation Yrotation
							JOINT LeftWrist
							{
OFFSET 0 -3.419240 -0.000000
CHANNELS 3 Zrotation Xrotation Yrotation
								JOINT lhand
								{
									OFFSET 0 0 0
CHANNELS 3 Zrotation Xrotation Yrotation
									JOINT LFingers
									{
OFFSET 0 -0.625370 -0.000000
CHANNELS 3 Zrotation Xrotation Yrotation
										End Site
										{
OFFSET 0 -0.504190 -0.000000
										}
									}
								}
								JOINT LThumb
								{
OFFSET 0 0.000000 0.000000
CHANNELS 3 Zrotation Xrotation Yrotation
									End Site
									{
OFFSET 0 -0.511890 0.511890
									}
								}
							}
						}
					}
				}
				JOINT RightCollar
				{
					OFFSET 0 0 0
					CHANNELS 3 Zrotation Yrotation Xrotation
					JOINT RightShoulder
					{
						OFFSET -3.78081 1.02180 -0.16609
CHANNELS 3 Zrotation Xrotation Yrotation
						JOINT RightElbow
						{
OFFSET 0 -4.406400 -0.000000
CHANNELS 3 Zrotation Xrotation Yrotation
							JOINT RightWrist
							{
OFFSET 0 -3.446750 0.000000
CHANNELS 3 Zrotation Xrotation Yrotation
								JOINT rhand
								{
									OFFSET 0 0 0
CHANNELS 3 Zrotation Xrotation Yrotation
									JOINT RFingers
									{
OFFSET 0 -0.513670 -0.000000
CHANNELS 3 Zrotation Xrotation Yrotation
										End Site
										{
OFFSET 0 -0.414140 -0.000000
										}
									}
								}
								JOINT RThumb
								{
OFFSET 0 0.000000 0.000000
CHANNELS 3 Zrotation Xrotation Yrotation
									End Site
									{
OFFSET 0 -0.420460 0.420460
									}
								}
							}
						}
					}
				}
			}
		}
	}
}
MOTION
Frames: 12
Frame Time: 0.008333333333333333
6.885500 16.581300 33.958300 179.806000 1.571800 -170.899000 0.000000 0.000000 0.000000 -20.583500 -9.867500 -2.328300 0.206500 2.925600 8.071700 0.529800 -7.343500 -13.179300 2.604500 -10.025500 -29.059400 0.000000 0.000000 0.000000 19.456900 5.590900 -3.524700 -0.259300 -3.275800 9.047600 -0.602900 0.994100 -14.360500 -1.402700 7.491800 -21.180700 -6.470200 1.180900 -10.053600 0.763300 2.331900 0.447700 4.797900 0.951000 5.836500 -3.051200 0.401500 -9.319100 4.458300 -1.247800 23.434100 1.826000 -0.902600 8.880700 -0.000000 -0.000000 0.000000 6.380100 -1.587600 -14.290700 11.574900 -19.164000 1.960500 28.601100 20.981400 14.948900 0.000000 0.000000 0.000000 -7.125000 0.000000 0.000000 0.689800 13.066000 0.516100 -0.000000 -0.000000 0.000000 -2.534800 4.411400 -11.053700 -12.986200 -21.267000 -2.448300 -19.018000 38.222200 48.099100 0.000000 0.000000 0.000000 7.125000 0.000000 -0.000000 44.067900 76.262500 -33.596900
6.884432 16.583189 33.959943 179.842962 1.628474 -170.902285 0.000000 0.000000 0.000000 -20.543746 -9.883024 -2.308834 0.205925 2.921740 8.060858 0.533578 -7.293889 -13.214126 2.702161 -10.196180 -29.614645 0.000000 0.000000 0.000000 19.510043 5.505888 -3.590984 -0.261271 -3.288203 9.082097 -0.592469 0.824898 -14.280909 -1.640404 8.067744 -22.922906 -6.445313 1.153877 -10.084155 0.819974 2.291324 0.456653 4.839872 0.929234 5.867055 -3.143850 0.384498 -9.424892 4.427991 -1.263570 23.586546 1.830682 -0.924695 8.953966 0.000000 0.000000 0.000000 6.040300 -1.429979 -15.375646 11.780817 -19.474970 2.028756 26.342910 20.264673 15.677536 0.000000 0.000000 0.000000 -7.125000 0.000000 0.000000 -0.889282 12.591413 -0.677595 0.000000 0.000000 0.000000 -2.422683 4.340187 -10.712175 -12.947185 -21.209751 -2.434172 -12.590542 33.403475 48.143125 0.000000 0.000000 0.000000 7.125000 0.000000 0.000000 49.907176 73.837490 -36.142240
6.884329 16.584371 33.963257 179.881209 1.656226 -170.896573 0.000000 0.000000 0.000000 -20.493001 -9.904204 -2.319833 0.207214 2.930927 8.086459 0.536714 -7.254048 -13.244067 2.732141 -10.248340 -29.784634 0.000000 0.000000 0.000000 19.555858 5.363930 -3.694933 -0.263178 -3.300155 9.115502 -0.581780 0.739830 -14.173938 -1.870524 8.584877 -24.508990 -6.425567 1.125568 -10.090286 0.865658 2.248628 0.457315 4.871496 0.907596 5.875628 -3.422124 0.343264 -9.263177 4.667440 -1.318483 23.418716 1.952856 -0.950518 8.869954 0.000000 0.000000 0.000000 5.723895 -1.336697 -16.290074 11.896237 -19.648845 2.067317 23.612501 20.041698 15.852840 0.000000 0.000000 0.000000 -7.125000 0.000000 0.000000 -2.732272 12.768369 -2.059420 0.000000 0.000000 0.000000 -2.260947 4.308824 -10.335685 -12.916076 -21.164070 -2.422937 -7.001599 28.972770 48.196599 0.000000 0.000000 0.000000 7.125000 0.000000 0.000000 54.715244 71.836109 -38.040793
6.884446 16.584707 33.966199 179.909603 1.655332 -170.883254 0.000000 0.000000 0.000000 -20.456559 -9.934474 -2.336700 0.208046 2.936918 8.103114 0.538696 -7.231681 -13.263090 2.725629 -10.237068 -29.747953 0.000000 0.000000 0.000000 19.588081 5.189205 -3.800439 -0.263954 -3.305161 9.129482 -0.573944 0.693600 -14.090731 -2.095380 9.056752 -25.976732 -6.409757 1.093747 -10.098261 0.897241 2.202882 0.452377 4.889894 0.885019 5.880088 -3.513249 0.335256 -9.266177 4.738204 -1.323987 23.382603 1.991889 -0.952500 8.858769 0.000000 0.000000 0.000000 5.430932 -1.259995 -17.124856 11.952208 -19.732962 2.086116 20.740270 19.814580 15.874917 0.000000 0.000000 0.000000 -7.125000 0.000000 0.000000 -4.658029 13.100043 -3.490421 0.000000 0.000000 0.000000 -2.060544 4.336618 -9.881578 -12.895842 -21.134415 -2.415615 -2.987663 25.509524 48.174729 0.000000 0.000000 0.000000 7.125000 0.000000 0.000000 57.895075 70.416246 -39.106128
6.884557 16.584543 33.968071 179.936703 1.649795 -170.871715 0.000000 0.000000 0.000000 -20.416435 -9.931308 -2.355707 0.207529 2.933346 8.093152 0.537416 -7.218277 -13.246035 2.712215 -10.213915 -29.672373 0.000000 0.000000 0.000000 19.626138 4.990364 -3.909334 -0.264071 -3.305971 9.131741 -0.573926 0.649961 -14.103785 -2.293227 9.450159 -27.215234 -6.383743 1.066233 -10.113795 0.917067 2.162979 0.442989 4.891048 0.866060 5.884143 -3.409550 0.361348 -9.424370 4.623604 -1.282655 23.505813 1.940501 -0.934791 8.928270 0.000000 0.000000 0.000000 5.164741 -1.170333 -17.899723 11.959310 -19.743572 2.088489 18.130325 19.362366 16.260747 0.000000 0.000000 0.000000 -7.125000 0.000000 0.000000 -6.419040 12.998283 -4.851427 0.000000 0.000000 0.000000 -1.828232 4.433883 -9.363214 -12.885544 -21.119330 -2.411886 -0.561259 23.191510 47.963318 0.000000 0.000000 0.000000 7.125000 0.000000 0.000000 59.314570 69.481659 -39.210162
6.884732 16.584347 33.969171 179.986492 1.668803 -170.872816 0.000000 0.000000 0.000000 -20.328794 -9.820159 -2.396533 0.206314 2.924685 8.069135 0.529540 -7.211718 -13.155110 2.714096 -10.217177 -29.682916 0.000000 0.000000 0.000000 19.706058 4.757866 -4.046646 -0.265066 -3.311937 9.148462 -0.586323 0.593488 -14.274591 -2.437177 9.722492 -28.082879 -6.325487 1.056431 -10.128629 0.932686 2.142909 0.429221 4.872071 0.858313 5.881872 -3.284216 0.391808 -9.519516 4.518814 -1.245541 23.606887 1.887888 -0.918083 8.978637 0.000000 0.000000 0.000000 4.925705 -1.063451 -18.570895 11.909824 -19.669151 2.071853 16.135923 18.774976 17.338332 0.000000 0.000000 0.000000 -7.125000 0.000000 0.000000 -7.783099 12.101277 -6.038661 0.000000 0.000000 0.000000 -1.563962 4.587676 -8.886300 -12.872220 -21.099658 -2.407117 0.711440 21.946362 47.461226 0.000000 0.000000 0.000000 7.125000 0.000000 0.000000 59.186107 68.799751 -38.322050
6.884978 16.583936 33.970485 180.105591 1.711103 -170.886780 0.000000 0.000000 0.000000 -20.137333 -9.479291 -2.531320 0.207956 2.936102 8.100922 0.509087 -7.281041 -12.930712 2.734056 -10.251592 -29.795280 0.000000 0.000000 0.000000 19.881010 4.439339 -4.245335 -0.269420 -3.339124 9.224274 -0.611867 0.568025 -14.595089 -2.529253 9.890791 -28.623914 -6.203924 1.080497 -10.127315 0.961023 2.158350 0.410165 4.834945 0.870716 5.861666 -3.152879 0.409549 -9.554999 4.452036 -1.242009 23.692884 1.843205 -0.914880 9.014284 0.000000 0.000000 0.000000 4.695886 -0.991581 -18.989054 11.763949 -19.449681 2.023064 14.863047 18.743271 18.480938 0.000000 0.000000 0.000000 -7.125000 0.000000 0.000000 -8.651779 11.072512 -6.912434 0.000000 0.000000 0.000000 -1.246174 4.712032 -8.837100 -12.797804 -20.990169 -2.380340 1.229888 21.806154 46.641171 0.000000 0.000000 0.000000 7.125000 0.000000 0.000000 57.839308 68.197441 -36.551999
6.884850 16.583750 33.969775 180.203701 1.756027 -170.917234 0.000000 0.000000 0.000000 -20.001791 -9.299733 -2.551495 0.208250 2.938374 8.107148 0.501078 -7.288524 -12.839515 2.748243 -10.275888 -29.874811 0.000000 0.000000 0.000000 20.007988 4.399956 -4.241262 -0.270100 -3.343374 9.236222 -0.629616 0.684234 -14.772867 -2.306279 9.472466 -27.288145 -6.105449 1.118355 -10.126900 0.987112 2.195155 0.404302 4.811836 0.891889 5.852779 -3.098449 0.391086 -9.537711 4.499121 -1.296869 23.705347 1.844097 -0.933190 9.017850 0.000000 0.000000 0.000000 4.411347 -1.006963 -18.906266 11.496567 -19.045065 1.935147 14.118328 19.537306 19.423256 0.000000 0.000000 0.000000 -7.125000 0.000000 0.000000 -9.161483 10.199436 -7.495818 0.000000 0.000000 0.000000 -0.904475 4.779943 -9.207591 -12.651953 -20.775064 -2.328453 1.279772 22.115696 45.904545 0.000000 0.000000 0.000000 7.125000 0.000000 0.000000 56.367404 67.774281 -34.923246
6.884914 16.583700 33.969329 180.244419 1.795322 -170.932139 0.000000 0.000000 0.000000 -19.952337 -9.243020 -2.544023 0.207786 2.935089 8.098080 0.500370 -7.279065 -12.829703 2.761364 -10.298302 -29.948230 0.000000 0.000000 0.000000 20.058660 4.393588 -4.239067 -0.269800 -3.341431 9.230749 -0.631089 0.716263 -14.780650 -2.284425 9.434397 -27.164218 -6.075872 1.141833 -10.129541 1.005791 2.221845 0.399189 4.818617 0.906079 5.845718 -3.075022 0.381088 -9.571438 4.572867 -1.337167 23.732522 1.861287 -0.943168 9.035642 0.000000 0.000000 0.000000 4.084514 -1.021622 -18.552548 11.209669 -18.608443 1.842682 13.783660 20.615793 20.137310 0.000000 0.000000 0.000000 -7.125000 0.000000 0.000000 -9.397981 9.515981 -7.824267 0.000000 0.000000 0.000000 -0.576815 4.897660 -9.491753 -12.527237 -20.590554 -2.284380 0.965507 22.339103 45.469035 0.000000 0.000000 0.000000 7.125000 0.000000 0.000000 55.222778 67.627947 -33.880917
6.885118 16.583504 33.970455 180.238092 1.823092 -170.913638 0.000000 0.000000 0.000000 -19.959398 -9.246082 -2.577611 0.208067 2.936969 8.103386 0.501675 -7.263361 -12.842301 2.770258 -10.313488 -29.997944 0.000000 0.000000 0.000000 20.044768 4.403627 -4.285641 -0.270128 -3.343345 9.236089 -0.628771 0.711306 -14.754196 -2.330629 9.523249 -27.446194 -6.100338 1.149755 -10.139643 1.015430 2.235550 0.387063 4.844707 0.912838 5.835648 -3.063571 0.381072 -9.653765 4.649603 -1.362035 23.791050 1.883514 -0.946000 9.072871 0.000000 0.000000 0.000000 3.747116 -0.984633 -18.145648 10.977339 -18.253362 1.768974 13.710267 21.607222 20.522268 0.000000 0.000000 0.000000 -7.125000 0.000000 0.000000 -9.456521 9.136699 -7.946860 0.000000 0.000000 0.000000 -0.252472 5.089065 -9.601274 -12.456927 -20.486356 -2.259659 0.199823 22.614043 45.189160 0.000000 0.000000 0.000000 7.125000 0.000000 0.000000 54.008938 67.707825 -33.057097
6.885407 16.583307 33.972699 180.207093 1.850333 -170.873444 0.000000 0.000000 0.000000 -19.991295 -9.259348 -2.654186 0.209805 2.949029 8.136941 0.502805 -7.240728 -12.851982 2.767852 -10.309392 -29.984504 0.000000 0.000000 0.000000 19.994515 4.430754 -4.364992 -0.271805 -3.353595 9.264809 -0.629692 0.727166 -14.760498 -2.320961 9.504576 -27.387000 -6.148458 1.151335 -10.157763 1.017650 2.244778 0.371767 4.875932 0.916886 5.826782 -3.084372 0.373852 -9.734079 4.743993 -1.397580 23.858518 1.916190 -0.955509 9.113590 0.000000 0.000000 0.000000 3.414744 -0.895002 -17.755969 10.811607 -17.998854 1.717356 13.781726 22.308006 20.599743 0.000000 0.000000 0.000000 -7.125000 0.000000 0.000000 -9.413333 9.050863 -7.925979 0.000000 0.000000 0.000000 0.075328 5.325405 -9.618274 -12.427995 -20.443431 -2.249554 -1.006917 23.103817 44.863670 0.000000 0.000000 0.000000 7.125000 0.000000 0.000000 52.314288 67.894790 -32.006115
6.885853 16.583728 33.973779 180.179192 1.903476 -170.853596 0.000000 0.000000 0.000000 -20.025145 -9.261181 -2.700248 0.212453 2.967175 8.187441 0.505470 -7.204007 -12.876926 2.745540 -10.271302 -29.859872 0.000000 0.000000 0.000000 19.947581 4.464374 -4.412358 -0.274582 -3.370511 9.312103 -0.630537 0.784480 -14.754243 -2.255287 9.378704 -26.987174 -6.184287 1.161106 -10.178695 1.018334 2.263636 0.369363 4.900396 0.924970 5.832310 -3.198873 0.329088 -9.728699 4.904309 -1.486982 23.880957 1.981240 -0.993869 9.125685 0.000000 0.000000 0.000000 3.077773 -0.805065 -17.266615 10.652308 -17.753370 1.668423 13.961943 22.719309 20.540231 0.000000 0.000000 0.000000 -7.125000 0.000000 0.000000 -9.296302 9.090545 -7.817214 0.000000 0.000000 0.000000 0.398841 5.531710 -9.751094 -12.383058 -20.376588 -2.233861 -2.522538 23.888706 44.298968 0.000000 0.000000 0.000000 7.125000 0.000000 0.000000 49.860247 68.026514 -30.353310
